<svg id="b7cb70f3-2355-42c4-bf3e-4cc4ce0f5c49" data-name="Layer 1" xmlns="http://www.w3.org/2000/svg" viewBox="0 0 200 200"><defs><style>.a004cd92-3b7d-40e8-902d-f36d30b77ca0{fill:#190009;}.bf570130-d8c4-4529-a73d-f424dcf402b9{fill:#503e4e;}.a311b630-344e-4ffb-9977-006a9e3b333b,.a3f15cc0-6219-4256-b302-1227b6356008,.b8b9708b-5fb8-49e6-806d-ce656f280787,.b90fcb59-849a-4caa-a618-3cc89f1ce850,.bf570130-d8c4-4529-a73d-f424dcf402b9,.e01f77c3-edd2-4173-8e35-bc1d664227b1,.e65c7dff-b2f1-40dc-90c9-a1ecd1095c53,.ee4d792d-718d-432e-a0d3-70b47893fc48,.f24aca25-6bb3-4b9f-94f2-443ea49ce699,.fabc0007-8018-4794-ba3c-11bafe394793{fill-rule:evenodd;}.b8b9708b-5fb8-49e6-806d-ce656f280787,.bd15ec00-7256-4f9b-88a1-9c98849f313c{fill:#d9f1fd;}.fabc0007-8018-4794-ba3c-11bafe394793{fill:#c3e2f4;}.a3f15cc0-6219-4256-b302-1227b6356008{fill:#e33534;}.ee4d792d-718d-432e-a0d3-70b47893fc48{fill:#7d6f7c;}.e65c7dff-b2f1-40dc-90c9-a1ecd1095c53{fill:#f5500a;}.e01f77c3-edd2-4173-8e35-bc1d664227b1{fill:#00c9dd;}.a311b630-344e-4ffb-9977-006a9e3b333b{fill:#005a78;}.b90fcb59-849a-4caa-a618-3cc89f1ce850{fill:#ffa90a;}.f24aca25-6bb3-4b9f-94f2-443ea49ce699{fill:#0f4283;}</style></defs><path class="a004cd92-3b7d-40e8-902d-f36d30b77ca0" d="M19.82,14.89H180.18a6.74,6.74,0,0,1,6.74,6.74V131.13a6.74,6.74,0,0,1-6.74,6.74H19.83a6.75,6.75,0,0,1-6.75-6.75V21.64A6.75,6.75,0,0,1,19.82,14.89Z"/><path class="bf570130-d8c4-4529-a73d-f424dcf402b9" d="M100,14.89h80.17a6.77,6.77,0,0,1,6.75,6.75V131.13a6.76,6.76,0,0,1-6.75,6.74H100Z"/><rect class="bd15ec00-7256-4f9b-88a1-9c98849f313c" x="27.15" y="25.39" width="145.69" height="101.99"/><polygon class="fabc0007-8018-4794-ba3c-11bafe394793" points="27.2 127.44 172.89 127.31 172.8 25.32 27.2 127.44"/><path class="a3f15cc0-6219-4256-b302-1227b6356008" d="M100,54.37A19.27,19.27,0,1,1,80.73,73.64,19.27,19.27,0,0,1,100,54.37Z"/><polygon class="b8b9708b-5fb8-49e6-806d-ce656f280787" points="94.33 61.87 111.76 73.28 94.33 84.7 94.33 61.87"/><path class="ee4d792d-718d-432e-a0d3-70b47893fc48" d="M69.29,106.32c-8.53-.33-14.4,4.11-17.52,10.92h-.06c-9,19.38-11.07,36.62-5,60l13.33,7.85,3-2.22C71,164.63,77.52,167,100,164.85V110.62C85.13,111,75.85,106.58,69.29,106.32Z"/><path class="ee4d792d-718d-432e-a0d3-70b47893fc48" d="M130.71,106.32c8.53-.33,14.4,4.11,17.52,10.92h.06c9,19.38,11.07,36.62,5,60l-13.33,7.85-3-2.22c-7.9-18.26-14.44-15.92-36.92-18V110.62C114.87,111,124.15,106.58,130.71,106.32Z"/><path class="bf570130-d8c4-4529-a73d-f424dcf402b9" d="M69.29,106.32c-8.53-.33-14.4,4.11-17.52,10.92h-.06c-9,19.38-11.07,36.62-5,60l13.33,7.85-10.81-7.85c-5.53-23.4-3.65-40.64,4.5-60,4-7.61,9.39-10.33,16.19-10.88Z"/><path class="bf570130-d8c4-4529-a73d-f424dcf402b9" d="M130.71,106.32c8.53-.33,14.4,4.11,17.52,10.92h.06c9,19.38,11.07,36.62,5,60l-13.33,7.85,9.58-7.85c5.52-23.4,4.88-40.64-3.27-60-4.71-7.93-9.39-10.33-16.19-10.88Z"/><path class="a3f15cc0-6219-4256-b302-1227b6356008" d="M81.86,135.89a13.3,13.3,0,1,1-13.3,13.3A13.29,13.29,0,0,1,81.86,135.89Z"/><rect class="bd15ec00-7256-4f9b-88a1-9c98849f313c" x="78.77" y="139.46" width="6.18" height="19.46"/><rect class="bd15ec00-7256-4f9b-88a1-9c98849f313c" x="72.13" y="146.1" width="19.46" height="6.18"/><path class="a3f15cc0-6219-4256-b302-1227b6356008" d="M118.16,135.89a13.3,13.3,0,1,1-13.3,13.3A13.29,13.29,0,0,1,118.16,135.89Z"/><path class="e65c7dff-b2f1-40dc-90c9-a1ecd1095c53" d="M118.16,140a9.23,9.23,0,1,1-9.23,9.23A9.23,9.23,0,0,1,118.16,140Z"/><path class="a3f15cc0-6219-4256-b302-1227b6356008" d="M131.78,110.75a12.44,12.44,0,1,1-12.43,12.44A12.44,12.44,0,0,1,131.78,110.75Z"/><path class="b8b9708b-5fb8-49e6-806d-ce656f280787" d="M122.61,121.76l7.74-7.75a3.32,3.32,0,0,1,4.67,0h0a3.32,3.32,0,0,1,0,4.67l-7.75,7.74a3.29,3.29,0,0,1-4.66,0h0A3.29,3.29,0,0,1,122.61,121.76Z"/><path class="e01f77c3-edd2-4173-8e35-bc1d664227b1" d="M123.34,122.18a2.48,2.48,0,1,1,0,3.51A2.48,2.48,0,0,1,123.34,122.18Z"/><path class="a311b630-344e-4ffb-9977-006a9e3b333b" d="M130.77,114.75a2.48,2.48,0,1,1,0,3.51A2.48,2.48,0,0,1,130.77,114.75Z"/><path class="b8b9708b-5fb8-49e6-806d-ce656f280787" d="M128.55,127.7l7.74-7.75a3.32,3.32,0,0,1,4.67,0h0a3.32,3.32,0,0,1,0,4.67l-7.75,7.74a3.29,3.29,0,0,1-4.66,0h0A3.29,3.29,0,0,1,128.55,127.7Z"/><path class="b90fcb59-849a-4caa-a618-3cc89f1ce850" d="M129.28,128.12a2.48,2.48,0,1,1,0,3.51A2.48,2.48,0,0,1,129.28,128.12Z"/><path class="e65c7dff-b2f1-40dc-90c9-a1ecd1095c53" d="M136.71,120.69a2.48,2.48,0,1,1,0,3.51A2.48,2.48,0,0,1,136.71,120.69Z"/><path class="a3f15cc0-6219-4256-b302-1227b6356008" d="M68.49,110.75a12.44,12.44,0,1,1-12.43,12.44A12.44,12.44,0,0,1,68.49,110.75Z"/><path class="f24aca25-6bb3-4b9f-94f2-443ea49ce699" d="M68.49,116.92a6.27,6.27,0,1,1-6.26,6.27A6.27,6.27,0,0,1,68.49,116.92Z"/><path class="b90fcb59-849a-4caa-a618-3cc89f1ce850" d="M64.05,105.9h8.89v17.52c-1.83,3.8-7.84,3.33-8.89,0Z"/><path class="e65c7dff-b2f1-40dc-90c9-a1ecd1095c53" d="M68.08,93.21a10.6,10.6,0,1,1-10.6,10.6A10.61,10.61,0,0,1,68.08,93.21Z"/><path class="bf570130-d8c4-4529-a73d-f424dcf402b9" d="M54.89,143.72,55,178.11,52.37,176a59,59,0,0,1-.5-30.83Z"/><path class="bf570130-d8c4-4529-a73d-f424dcf402b9" d="M145.11,143.72,145,178.11l2.64-2.09a59,59,0,0,0,.5-30.83Z"/></svg>